<?xml version="1.0" encoding="UTF-8" standalone="no"?>
<!-- Created with Inkscape (http://www.inkscape.org/) -->

<svg
   width="135.48787mm"
   height="135.27104mm"
   viewBox="0 0 135.48787 135.27105"
   version="1.1"
   id="svg5"
   inkscape:version="1.1.2 (0a00cf5339, 2022-02-04)"
   sodipodi:docname="icon.svg"
   inkscape:export-filename="/home/mguillon/dev/android/NoWakeLock/app/src/main/ic_launcher-playstore.png"
   inkscape:export-xdpi="25.4"
   inkscape:export-ydpi="25.4"
   xmlns:inkscape="http://www.inkscape.org/namespaces/inkscape"
   xmlns:sodipodi="http://sodipodi.sourceforge.net/DTD/sodipodi-0.dtd"
   xmlns="http://www.w3.org/2000/svg"
   xmlns:svg="http://www.w3.org/2000/svg">
  <sodipodi:namedview
     id="namedview7"
     pagecolor="#ffffff"
     bordercolor="#666666"
     borderopacity="1.0"
     inkscape:pageshadow="2"
     inkscape:pageopacity="0.0"
     inkscape:pagecheckerboard="0"
     inkscape:document-units="mm"
     showgrid="false"
     fit-margin-top="15"
     fit-margin-left="0"
     fit-margin-right="0"
     fit-margin-bottom="0"
     inkscape:zoom="1.4694033"
     inkscape:cx="134.4083"
     inkscape:cy="327.68403"
     inkscape:window-width="1920"
     inkscape:window-height="999"
     inkscape:window-x="0"
     inkscape:window-y="0"
     inkscape:window-maximized="1"
     inkscape:current-layer="layer1" />
  <defs
     id="defs2" />
  <g
     inkscape:label="Layer 1"
     inkscape:groupmode="layer"
     id="layer1"
     transform="translate(-17.658198,-24.497986)">
    <g
       id="g968"
       transform="translate(15.270236,-33.979825)">
      <path
         style="fill:#86e541;stroke-width:0.264583"
         d="m 2.4632483,169.6059 0.07529,-13.55989 1.114042,-2.6911 c 3.693358,-8.92174 8.0797727,-15.66045 14.2540597,-21.89804 2.091328,-2.11277 3.020439,-3.23865 3.020439,-3.6601 0,-0.33478 -0.227908,-1.2594 -0.506462,-2.05472 -0.428702,-1.22403 -1.063844,-3.6171 -2.701141,-10.17729 -0.370412,-1.48414 -0.888342,-3.37329 -1.559575,-5.68854 -0.316418,-1.09141 -0.679378,-2.62026 -0.90349,-3.36815 -0.359075,-1.53973 0.03033,0.18195 -0.618681,-2.76272 0.02621,-0.9593 1.295477,-2.56329 3.068613,-3.19679 1.905841,-0.680917 3.761233,0.33758 3.761233,0.33758 0.256568,0.18355 0.637319,0.51656 0.798177,0.81713 0.322502,0.6026 2.084484,6.93179 4.890011,17.56534 0.659662,2.50027 1.00764,3.3073 1.426047,3.3073 0.09988,0 0.888975,-0.43172 1.753541,-0.95938 5.699016,-3.47821 14.492123,-6.89411 20.092767,-7.80553 1.263049,-0.20554 5.764794,-0.98004 5.87203,-1.01025 2.29911,-0.25357 11.728483,-0.40343 15.522333,-0.41366 1.051653,0.0333 4.916657,0.39416 10.431767,0.53848 3.45505,0.0904 5.10982,0.23992 5.787,0.52287 0.5216,0.21793 1.44839,0.39625 2.05955,0.39625 0.61114,0 1.6384,0.16369 2.28279,0.36375 0.64438,0.20007 1.82645,0.50838 2.62682,0.68514 3.77975,0.83475 11.225491,4.02113 15.476961,6.62332 1.8325,1.12161 2.35514,1.26304 2.69149,0.72831 0.37002,-0.58827 1.12859,-2.95979 1.13748,-3.55611 0.005,-0.31875 0.3063,-1.40472 0.6701,-2.41326 0.3638,-1.00854 0.66146,-2.06599 0.66146,-2.34989 0,-0.28389 0.16462,-1.04339 0.36584,-1.68778 0.20122,-0.64438 0.50611,-1.70739 0.67754,-2.36223 0.35355,-1.35052 1.03575,-3.77622 1.3394,-4.7625 0.11201,-0.36381 0.33342,-1.14266 0.49203,-1.73078 0.1586,-0.58813 0.65601,-1.42157 1.10534,-1.85209 0.75409,-0.72251 1.03988,-1.07437 2.83885,-1.07437 1.79788,0 2.52255,0.42511 3.27534,1.14566 0.93631,0.89626 0.86253,2.38262 0.61671,3.59986 -0.0931,0.46077 -0.50327,2.08791 -0.91161,3.61588 -0.40834,1.52797 -1.42244,5.33797 -2.25356,8.46667 -0.83112,3.1287 -1.79738,6.69543 -2.14726,7.92606 -0.90771,3.19279 -0.8855,3.31362 0.92301,5.02142 5.26674,4.97344 9.94298,11.48317 13.4117,18.67023 2.68194,5.55686 2.49166,4.02061 2.49166,20.11758 l 0,24.70618 c -45.128678,0 -88.519823,0 -135.4849277,0 z"
         id="path972"
         sodipodi:nodetypes="ccssssssccsssssssccssssssscssssssssscssssssccc" />
      <path
         style="fill:#393e35;stroke-width:0.264583"
         d="m 38.599405,151.47183 c -2.123517,-0.87474 -5.187518,-3.01301 -6.019487,-4.20081 -0.546505,-0.78025 -0.493475,-1.69725 0.117051,-2.02399 0.281475,-0.15064 0.57344,-0.27389 0.648811,-0.27389 0.07537,0 0.938734,0.71165 1.918584,1.58144 1.811073,1.60766 3.267125,2.44606 5.363403,3.08827 3.15881,0.96772 6.806091,-0.25612 10.268431,-3.44555 1.711716,-1.57679 2.118148,-1.78738 2.786393,-1.44368 1.933623,0.99449 -2.804477,5.54096 -7.313797,7.01799 -2.807084,0.91946 -5.016508,0.83421 -7.769389,-0.29978 z m 56.522985,0.37466 c -2.23338,-0.72324 -4.331012,-2.00989 -6.214631,-3.81194 -1.785784,-1.70846 -2.188506,-2.78601 -1.226211,-3.28093 0.678764,-0.3491 1.077753,-0.13283 2.9226,1.5842 2.677898,2.49237 5.966915,3.86346 8.612719,3.59039 1.948783,-0.20113 4.525873,-1.43977 6.538963,-3.14285 2.19485,-1.85684 2.25543,-1.88936 2.88848,-1.55057 0.93199,0.49879 0.63918,1.37349 -0.98672,2.94753 -1.99403,1.93042 -2.73988,2.418 -5.18387,3.38886 -2.4218,0.96204 -4.93955,1.05633 -7.35133,0.27531 z M 66.152133,118.31232 c -0.38944,-0.25523 -1.858825,-3.19019 -2.65149,-5.29611 -0.936072,-2.48692 -2.173951,-4.82015 -2.55729,-4.82015 -0.186114,0 -0.967425,1.07844 -1.736244,2.39654 -1.255926,2.15322 -1.825283,2.69109 -2.066848,1.95254 -0.04462,-0.13642 0.724519,-1.61726 1.709203,-3.29075 1.39914,-2.37787 1.914295,-3.04271 2.357649,-3.04271 0.468966,0 0.972466,0.79967 2.904469,4.61292 1.285436,2.5371 2.474507,4.65655 2.64238,4.7099 0.167876,0.0533 0.968878,-0.92114 1.780003,-2.16552 1.465347,-2.24804 2.280396,-2.83995 2.280396,-1.65609 0,0.33353 -0.610079,1.67298 -1.35573,2.97656 -2.181569,3.81392 -2.493494,4.15569 -3.306498,3.62287 z M 90.147562,99.235011 c -0.145523,-0.27191 -0.627351,-3.814019 -1.070734,-7.871354 -0.909373,-8.321574 -0.950106,-8.57056 -1.400321,-8.559855 -0.179128,0.0043 -1.694907,1.1914 -3.368397,2.638089 -1.673489,1.446688 -3.195272,2.633829 -3.38174,2.638089 -0.450998,0.01029 -0.686786,-0.654701 -0.408469,-1.152025 0.122553,-0.218988 1.293374,-1.3168 2.601828,-2.439578 5.820664,-4.994695 5.944804,-5.073681 6.460278,-4.110508 0.144889,0.270725 0.630304,3.872365 1.078701,8.003646 0.879594,8.10406 0.935336,8.438416 1.406295,8.435562 0.172093,-0.0011 1.622586,-1.141807 3.223315,-2.535026 3.237717,-2.818 3.953187,-3.273015 4.417086,-2.809116 0.494786,0.494784 -0.02699,1.198145 -2.432711,3.279328 -6.120561,5.294877 -6.546929,5.563127 -7.125131,4.482748 z M 113.8753,85.685281 c -0.97124,-0.565695 -0.96665,-0.579001 4.58536,-13.268559 2.39838,-5.481711 2.8478,-6.708709 2.56191,-6.994597 -0.28589,-0.285887 -1.15785,-0.185646 -4.97069,0.571437 -2.54319,0.504979 -4.89561,0.920248 -5.22759,0.92282 -1.36573,0.01058 -0.76804,-1.666141 0.69719,-1.955855 12.83467,-2.53775 13.0033,-2.551354 13.0033,-1.049089 0,0.37176 -1.72641,4.628987 -3.83646,9.460505 -2.11006,4.831517 -3.83646,9.047536 -3.83646,9.36893 0,0.767663 0.0927,0.761852 5.5776,-0.349493 4.93778,-1.00049 5.71809,-1.04199 6.16519,-0.32789 0.58482,0.934093 -0.33664,1.269791 -7.149,2.604452 -7.35195,1.440376 -6.93926,1.384919 -7.57035,1.017339 z"
         id="path970" />
    </g>
  </g>
</svg>
